<svg width="59" height="56" viewBox="0 0 59 56" fill="none" xmlns="http://www.w3.org/2000/svg">
<rect width="3.41144" height="3.41144" rx="1.70572" transform="matrix(-0.760151 0.649747 0.649747 0.760151 48.4783 6.9292)" fill="#36DDAB"/>
<rect width="3.41144" height="3.41144" rx="1.70572" transform="matrix(-0.760151 0.649747 0.649747 0.760151 55.6423 18.5281)" fill="#36DDAB"/>
<rect width="3.41144" height="3.41144" rx="1.70572" transform="matrix(-0.760151 0.649747 0.649747 0.760151 56.6658 32.515)" fill="#36DDAB"/>
<rect x="3.75269" y="18.5281" width="3.41144" height="3.41144" rx="1.70572" transform="rotate(40.5225 3.75269 18.5281)" fill="#36DDAB"/>
<rect x="2.72925" y="32.515" width="3.41144" height="3.41144" rx="1.70572" transform="rotate(40.5225 2.72925 32.515)" fill="#36DDAB"/>
<rect x="11.6572" y="6.9292" width="3.41144" height="3.41144" rx="1.70572" transform="rotate(60.0864 11.6572 6.9292)" fill="#36DDAB"/>
<rect x="20.9817" y="4.88208" width="3.41144" height="3.41144" rx="1.70572" transform="rotate(-90 20.9817 4.88208)" fill="#36DDAB"/>
<rect width="3.41144" height="3.41144" rx="1.70572" transform="matrix(-0.498693 0.866779 0.866779 0.498693 35.3052 0.788574)" fill="#36DDAB"/>
<circle cx="29.6806" cy="29.7247" r="22.3449" fill="#292929"/>
<g filter="url(#filter0_d_79_1648)">
<circle cx="29.5584" cy="24.5468" r="15.2293" fill="#F2F2F2"/>
</g>
<circle cx="24.7935" cy="23.1178" r="1.42976" fill="#292929"/>
<circle cx="34.3678" cy="23.1178" r="1.42976" fill="#292929"/>
<path d="M26.2231 26.9128C27.3945 27.6138 29.51 29.6153 32.4839 26.9128H26.2231Z" stroke="#292929" stroke-width="1.01461" stroke-linejoin="round"/>
<g filter="url(#filter1_d_79_1648)">
<rect x="35.3096" y="43.7767" width="8.78929" height="8.18261" rx="4.09131" transform="rotate(-11.4633 35.3096 43.7767)" fill="#F2F2F2"/>
</g>
<g filter="url(#filter2_d_79_1648)">
<rect width="8.78929" height="8.18261" rx="4.09131" transform="matrix(-0.980052 -0.198741 -0.198741 0.980052 23.7107 43.7767)" fill="#F2F2F2"/>
</g>
<defs>
<filter id="filter0_d_79_1648" x="12.6234" y="7.61178" width="35.2345" height="35.2345" filterUnits="userSpaceOnUse" color-interpolation-filters="sRGB">
<feFlood flood-opacity="0" result="BackgroundImageFix"/>
<feColorMatrix in="SourceAlpha" type="matrix" values="0 0 0 0 0 0 0 0 0 0 0 0 0 0 0 0 0 0 127 0" result="hardAlpha"/>
<feMorphology radius="1.02343" operator="dilate" in="SourceAlpha" result="effect1_dropShadow_79_1648"/>
<feOffset dx="0.682288" dy="0.682288"/>
<feGaussianBlur stdDeviation="0.682288"/>
<feComposite in2="hardAlpha" operator="out"/>
<feColorMatrix type="matrix" values="0 0 0 0 0 0 0 0 0 0 0 0 0 0 0 0 0 0 0.25 0"/>
<feBlend mode="normal" in2="BackgroundImageFix" result="effect1_dropShadow_79_1648"/>
<feBlend mode="normal" in="SourceGraphic" in2="effect1_dropShadow_79_1648" result="shape"/>
</filter>
<filter id="filter1_d_79_1648" x="32.6288" y="40.3726" width="15.6017" height="15.1277" filterUnits="userSpaceOnUse" color-interpolation-filters="sRGB">
<feFlood flood-opacity="0" result="BackgroundImageFix"/>
<feColorMatrix in="SourceAlpha" type="matrix" values="0 0 0 0 0 0 0 0 0 0 0 0 0 0 0 0 0 0 127 0" result="hardAlpha"/>
<feOffset dy="1.02343"/>
<feGaussianBlur stdDeviation="1.70572"/>
<feComposite in2="hardAlpha" operator="out"/>
<feColorMatrix type="matrix" values="0 0 0 0 0 0 0 0 0 0 0 0 0 0 0 0 0 0 0.25 0"/>
<feBlend mode="normal" in2="BackgroundImageFix" result="effect1_dropShadow_79_1648"/>
<feBlend mode="normal" in="SourceGraphic" in2="effect1_dropShadow_79_1648" result="shape"/>
</filter>
<filter id="filter2_d_79_1648" x="10.7897" y="40.3726" width="15.6017" height="15.1277" filterUnits="userSpaceOnUse" color-interpolation-filters="sRGB">
<feFlood flood-opacity="0" result="BackgroundImageFix"/>
<feColorMatrix in="SourceAlpha" type="matrix" values="0 0 0 0 0 0 0 0 0 0 0 0 0 0 0 0 0 0 127 0" result="hardAlpha"/>
<feOffset dy="1.02343"/>
<feGaussianBlur stdDeviation="1.70572"/>
<feComposite in2="hardAlpha" operator="out"/>
<feColorMatrix type="matrix" values="0 0 0 0 0 0 0 0 0 0 0 0 0 0 0 0 0 0 0.25 0"/>
<feBlend mode="normal" in2="BackgroundImageFix" result="effect1_dropShadow_79_1648"/>
<feBlend mode="normal" in="SourceGraphic" in2="effect1_dropShadow_79_1648" result="shape"/>
</filter>
</defs>
</svg>
