<svg width="600" height="600" viewBox="0 0 600 600" fill="none" xmlns="http://www.w3.org/2000/svg">
<path d="M254.234 345.766C267.542 358.425 267.542 379.198 254.234 391.856C241.575 404.515 220.802 404.515 208.144 391.856C177.743 361.41 160.667 320.143 160.667 277.117C160.667 234.091 177.743 192.824 208.144 162.378L323.045 47.4762C353.492 17.0752 394.759 0 437.785 0C480.81 0 522.077 17.0752 552.524 47.4762C582.925 77.9227 600 119.19 600 162.215C600 205.241 582.925 246.508 552.524 276.955L504.161 325.317C504.486 298.702 500.266 272.086 491.178 246.769L506.433 231.189C515.533 222.188 522.756 211.472 527.686 199.66C532.616 187.849 535.155 175.177 535.155 162.378C535.155 149.579 532.616 136.907 527.686 125.095C522.756 113.284 515.533 102.568 506.433 93.5666C497.432 84.4674 486.716 77.2437 474.905 72.3137C463.093 67.3837 450.421 64.8452 437.622 64.8452C424.823 64.8452 412.151 67.3837 400.34 72.3137C388.529 77.2437 377.812 84.4674 368.811 93.5666L254.234 208.144C245.135 217.145 237.911 227.861 232.981 239.672C228.051 251.484 225.513 264.156 225.513 276.955C225.513 289.754 228.051 302.426 232.981 314.237C237.911 326.049 245.135 336.765 254.234 345.766M345.766 208.144C358.425 195.485 379.198 195.485 391.856 208.144C422.257 238.59 439.333 279.857 439.333 322.883C439.333 365.909 422.257 407.176 391.856 437.622L276.955 552.524C246.508 582.925 205.241 600 162.215 600C119.19 600 77.9227 582.925 47.4762 552.524C17.0752 522.077 0 480.81 0 437.785C0 394.759 17.0752 353.492 47.4762 323.045L95.8387 274.683C95.5141 301.298 99.7337 327.914 108.822 353.556L93.5666 368.811C84.4674 377.812 77.2437 388.529 72.3137 400.34C67.3837 412.151 64.8452 424.823 64.8452 437.622C64.8452 450.421 67.3837 463.093 72.3137 474.905C77.2437 486.716 84.4674 497.432 93.5666 506.433C102.568 515.533 113.284 522.756 125.095 527.686C136.907 532.616 149.579 535.155 162.378 535.155C175.177 535.155 187.849 532.616 199.66 527.686C211.472 522.756 222.188 515.533 231.189 506.433L345.766 391.856C354.865 382.855 362.089 372.139 367.019 360.328C371.949 348.516 374.487 335.844 374.487 323.045C374.487 310.246 371.949 297.574 367.019 285.763C362.089 273.952 354.865 263.235 345.766 254.234C342.614 251.28 340.101 247.711 338.383 243.747C336.665 239.783 335.779 235.509 335.779 231.189C335.779 226.869 336.665 222.595 338.383 218.631C340.101 214.667 342.614 211.098 345.766 208.144V208.144Z" fill="#36DDAB"/>
</svg>
